# xmcd
#
# Track frame offsets: 
#        150
#        24440
#        39299
#        52959
#        65727
#        81172
#        94607
#        114863
#        129563
#        164084
#        179027
#        202306
#
# Disc length: 3056 seconds
#
# Revision: 0
# Processed by: cddbd v1.5.1PL0 Copyright (c) Steve Scherf et al.
# Submitted via: ExactAudioCopy v0.95a5
#
DISCID=a60bee0c
DTITLE=Jack Falk Project - Jamming With My Friends
DYEAR=2002
DGENRE=Blues
TTITLE0=Don't Know When Its Gone
TTITLE1=If Lovin You Was Meant to Be
TTITLE2=Walking Bluesman
TTITLE3=Blues For B.B.
TTITLE4=Campfire Blues
TTITLE5=Blues For Stills
TTITLE6=Lovin You
TTITLE7=Shes So Fine
TTITLE8=The Space Traveler
TTITLE9=Heaven Is Waiting For You
TTITLE10=Go To Sleep
TTITLE11=Data
EXTD=
EXTT0=
EXTT1=
EXTT2=
EXTT3=
EXTT4=
EXTT5=
EXTT6=
EXTT7=
EXTT8=
EXTT9=
EXTT10=
EXTT11=
PLAYORDER=
